<?xml version="1.0" standalone="no"?>
<!DOCTYPE svg PUBLIC "-//W3C//DTD SVG 20010904//EN"
 "http://www.w3.org/TR/2001/REC-SVG-20010904/DTD/svg10.dtd">
<svg version="1.0" xmlns="http://www.w3.org/2000/svg"
 width="256.000000pt" height="256.000000pt" viewBox="0 0 256.000000 256.000000"
 preserveAspectRatio="xMidYMid meet">
<metadata>
Created by potrace 1.10, written by Peter Selinger 2001-2011
</metadata>
<g transform="translate(0.000000,256.000000) scale(0.100000,-0.100000)"
fill="#ffffff" stroke="none">
<path d="M669 2513 c-94 -126 -148 -226 -197 -363 -48 -137 -65 -239 -65 -390
1 -223 34 -370 125 -558 167 -344 481 -585 868 -668 119 -25 363 -25 480 0
236 51 435 154 598 310 l74 71 -912 820 c-502 451 -917 821 -924 823 -6 1 -28
-19 -47 -45z"/>
<path d="M2036 2380 c-80 -26 -141 -100 -152 -187 -6 -52 -11 -58 -107 -159
l-100 -105 96 -97 97 -97 100 106 c93 100 103 107 147 114 67 10 103 27 140
65 128 132 42 356 -141 366 -28 2 -64 -1 -80 -6z"/>
<path d="M390 500 l-285 -279 -47 0 -48 -1 0 -110 0 -110 845 0 845 0 0 110 0
110 -240 0 -239 0 -3 116 -3 115 -91 38 c-139 57 -256 131 -380 238 -34 29
-63 53 -65 53 -2 0 -132 -126 -289 -280z m557 -277 c-2 -2 -82 -2 -177 -1
l-173 3 174 161 174 161 3 -160 c1 -88 1 -162 -1 -164z"/>
</g>
</svg>
